<svg width="104" height="15" viewBox="0 0 104 15" fill="none" xmlns="http://www.w3.org/2000/svg">
<path d="M1.91603 12.7548C0.945684 11.9166 0.46051 10.6866 0.46051 9.07281V4.96383C0.46051 3.35 0.945684 2.12005 1.91603 1.2818C2.88637 0.443548 4.28432 0.0205078 6.1181 0.0205078C7.95188 0.0205078 9.37038 0.439631 10.3407 1.2818C11.3111 2.12005 11.7962 3.35 11.7962 4.96383V9.07281C11.7962 10.6866 11.3111 11.9166 10.3407 12.7548C9.37038 13.5931 7.96421 14.0161 6.1181 14.0161C4.27198 14.0161 2.88637 13.597 1.91603 12.7548ZM8.88932 11.662C9.53485 11.0627 9.85555 10.197 9.85555 9.07673V4.96774C9.85555 3.84355 9.53485 2.9818 8.88932 2.38249C8.2438 1.78318 7.31868 1.48157 6.11398 1.48157C4.90928 1.48157 4.00061 1.78318 3.3592 2.38249C2.71368 2.9818 2.39297 3.84355 2.39297 4.96774V9.07673C2.39297 10.2009 2.71368 11.0627 3.3592 11.662C4.00472 12.2613 4.92161 12.5629 6.11398 12.5629C7.30635 12.5629 8.24791 12.2613 8.88932 11.662Z" fill="#172121"/>
<path d="M28.8636 13.8006H26.8077L25.8497 10.4672C25.6606 9.82086 25.455 9.31557 25.2289 8.9552C25.0069 8.59483 24.6985 8.32063 24.3038 8.14045C23.9091 7.96026 23.3745 7.87017 22.6961 7.87017H19.8262V13.8006H17.8938V0.23584H23.8721C25.3358 0.23584 26.4377 0.557038 27.1778 1.19552C27.9179 1.834 28.2879 2.77017 28.2879 3.99621C28.2879 4.94022 28.0453 5.69621 27.5643 6.26418C27.0832 6.83215 26.4007 7.18861 25.5208 7.32962C26.1458 7.53722 26.6268 7.88976 26.964 8.39506C27.3011 8.90036 27.6095 9.59759 27.8809 10.4868L28.8553 13.8006H28.8636ZM23.798 6.42086C24.5834 6.42086 25.2083 6.21718 25.6688 5.8098C26.1293 5.40243 26.3596 4.81879 26.3596 4.05496C26.3596 3.29114 26.1334 2.7075 25.6771 2.30013C25.2207 1.89275 24.5957 1.68907 23.7939 1.68907H19.8262V6.41695H23.7939L23.798 6.42086Z" fill="#172121"/>
<path d="M43.3488 9.84839H37.206L35.9437 13.8007H34.0113L37.6131 2.6371C37.831 1.96728 38.053 1.4424 38.2833 1.06636C38.5135 0.690323 38.7849 0.423964 39.0974 0.263365C39.4098 0.102765 39.7963 0.0205078 40.2568 0.0205078C40.9353 0.0205078 41.4698 0.212443 41.8645 0.592397C42.2592 0.972351 42.6087 1.65392 42.9212 2.6371L46.5435 13.8007H44.5905L43.3488 9.84839ZM42.9006 8.43433L41.0709 2.6606C40.964 2.31198 40.8489 2.06912 40.7256 1.93595C40.6022 1.79885 40.446 1.73226 40.2568 1.73226C40.08 1.73226 39.9361 1.79885 39.821 1.93595C39.7059 2.07304 39.5949 2.31198 39.4839 2.6606L37.6542 8.43433H42.9006Z" fill="#172121"/>
<path d="M52.5999 12.7743C51.8475 12.0888 51.4692 11.0626 51.4692 9.6916V0.23584H53.4017V9.6916C53.4017 10.5964 53.6237 11.2663 54.0719 11.6971C54.5201 12.1319 55.2108 12.3474 56.1483 12.3474H60.7245V13.8006H56.1483C54.5324 13.8006 53.3524 13.4598 52.5999 12.7743Z" fill="#172121"/>
<path d="M66.4067 0.23584H68.3392V13.8006H66.4067V0.23584Z" fill="#172121"/>
<path d="M86.0356 0.23584V11.3994C86.0356 12.2024 85.8629 12.8017 85.5175 13.2013C85.1721 13.6008 84.6253 13.8006 83.8811 13.8006H82.5201L76.6611 3.06395V13.8006H74.8314V0.23584H77.0681L83.5152 12.2103H83.6385C83.8564 12.2103 84.0044 12.1319 84.0867 11.9792C84.1689 11.8225 84.21 11.5405 84.21 11.1252V0.23584H86.0397H86.0356Z" fill="#172121"/>
<path d="M98.3457 7.0985L102.963 13.8045H100.747L97.0835 8.4773L93.4036 13.8045H91.2285L95.9898 6.88698L91.4341 0.239746H93.6091L97.252 5.5121L100.891 0.239746H103.045L98.3457 7.0985Z" fill="#172121"/>
</svg>
