<svg width="35" height="32" viewBox="0 0 35 32" fill="none" xmlns="http://www.w3.org/2000/svg">
<path d="M23.0011 0.463135V17.5258C23.0011 19.4608 21.3565 21.0276 19.3253 21.0276V0.0205078H15.6496C11.5914 0.0205078 7.91561 1.58733 5.25539 4.12166C2.59518 6.65599 0.950531 10.1539 0.950531 14.024V17.5258C0.950531 25.2581 7.52911 31.5293 15.6496 31.5293H19.3253C27.4417 31.5293 34.0244 25.262 34.0244 17.5258V14.024C34.0244 7.49816 29.3412 2.0182 23.0011 0.463135ZM30.3527 17.5258C30.3527 23.327 25.4188 28.0274 19.3295 28.0274H15.6537C9.56437 28.0274 4.63043 23.327 4.63043 17.5258V14.024C4.63043 8.22281 9.56437 3.52235 15.6537 3.52235V7.02419C13.6266 7.02419 11.7887 7.8076 10.4566 9.07673C9.12442 10.3459 8.3021 12.0929 8.3021 14.0279V17.5297C8.3021 21.3958 11.5914 24.5295 15.6496 24.5295H19.3253C23.3835 24.5295 26.6728 21.3958 26.6728 17.5297V6.20161C28.926 8.12097 30.3486 10.9177 30.3486 14.0279V17.5297L30.3527 17.5258ZM15.6537 10.5221V21.0237C13.6225 21.0237 11.9779 19.4569 11.9779 17.5219V14.02C11.9779 12.085 13.6225 10.5182 15.6537 10.5182V10.5221Z" fill="#172121"/>
<path d="M30.3527 14.0241V17.5259C30.3527 23.3271 25.4188 28.0275 19.3295 28.0275H15.6537C9.56437 28.0275 4.63043 23.3271 4.63043 17.5259V14.0241C4.63043 8.22292 9.56437 3.52246 15.6537 3.52246V7.0243C13.6266 7.0243 11.7888 7.80771 10.4566 9.07684C9.12443 10.346 8.30211 12.093 8.30211 14.028V17.5298C8.30211 21.396 11.5914 24.5296 15.6496 24.5296H19.3253C23.3835 24.5296 26.6728 21.396 26.6728 17.5298V6.20172C28.926 8.12108 30.3486 10.9179 30.3486 14.028L30.3527 14.0241Z" fill="#92AFDC"/>
<path d="M23.0011 17.5258V0.463135C21.8252 0.173273 20.5958 0.0205078 19.3253 0.0205078V21.0237C21.3565 21.0237 23.0011 19.4569 23.0011 17.5219V17.5258Z" fill="#3D59A8"/>
</svg>
