<svg width="12" height="15" viewBox="0 0 12 15" fill="none" xmlns="http://www.w3.org/2000/svg">
<path d="M1.91603 12.7548C0.945684 11.9166 0.46051 10.6866 0.46051 9.07281V4.96383C0.46051 3.35 0.945684 2.12005 1.91603 1.2818C2.88637 0.443548 4.28432 0.0205078 6.1181 0.0205078C7.95188 0.0205078 9.37038 0.439631 10.3407 1.2818C11.3111 2.12005 11.7962 3.35 11.7962 4.96383V9.07281C11.7962 10.6866 11.3111 11.9166 10.3407 12.7548C9.37038 13.5931 7.96421 14.0161 6.1181 14.0161C4.27198 14.0161 2.88637 13.597 1.91603 12.7548ZM8.88932 11.662C9.53485 11.0627 9.85555 10.197 9.85555 9.07673V4.96774C9.85555 3.84355 9.53485 2.9818 8.88932 2.38249C8.2438 1.78318 7.31868 1.48157 6.11398 1.48157C4.90928 1.48157 4.00061 1.78318 3.3592 2.38249C2.71368 2.9818 2.39297 3.84355 2.39297 4.96774V9.07673C2.39297 10.2009 2.71368 11.0627 3.3592 11.662C4.00472 12.2613 4.92161 12.5629 6.11398 12.5629C7.30635 12.5629 8.24791 12.2613 8.88932 11.662Z" fill="#172121"/>
</svg>
