<svg width="12" height="14" viewBox="0 0 12 14" fill="none" xmlns="http://www.w3.org/2000/svg">
<path d="M11.8636 13.8006H9.80775L8.84974 10.4672C8.6606 9.82086 8.45503 9.31557 8.22889 8.9552C8.00686 8.59483 7.69849 8.32063 7.30377 8.14045C6.90906 7.96026 6.37455 7.87017 5.69613 7.87017H2.82623V13.8006H0.893768V0.23584H6.87205C8.33579 0.23584 9.43771 0.557038 10.1778 1.19552C10.9179 1.834 11.2879 2.77017 11.2879 3.99621C11.2879 4.94022 11.0453 5.69621 10.5643 6.26418C10.0832 6.83215 9.40069 7.18861 8.52081 7.32962C9.14577 7.53722 9.62684 7.88976 9.96399 8.39506C10.3011 8.90036 10.6095 9.59759 10.8809 10.4868L11.8553 13.8006H11.8636ZM6.79805 6.42086C7.58337 6.42086 8.20833 6.21718 8.66883 5.8098C9.12933 5.40243 9.35958 4.81879 9.35958 4.05496C9.35958 3.29114 9.13344 2.7075 8.67705 2.30013C8.22066 1.89275 7.5957 1.68907 6.79393 1.68907H2.82623V6.41695H6.79393L6.79805 6.42086Z" fill="#172121"/>
</svg>
