<svg width="326" height="326" viewBox="0 0 326 326" fill="none" xmlns="http://www.w3.org/2000/svg">
<path d="M325.948 143.935C325.948 133.645 325.007 123.425 322.559 113.439C310.278 63.3166 280.114 28.6017 232.303 9.26652C227.586 7.35789 222.621 6.01632 217.421 4.30132V7.09511C217.421 64.2571 217.421 121.419 217.421 178.581C217.421 180.075 217.338 181.568 217.283 183.062C216.674 198.317 205.707 212.148 190.217 216.09C187.326 216.823 184.297 217.044 181.089 217.528V0H178.599C166.774 0 154.963 0 143.152 0C133.623 0 124.177 1.02347 114.869 3.0704C80.2378 10.6772 51.8994 28.4358 30.1857 56.4428C11.1552 80.9922 1.18349 108.985 0.229195 140.021C-0.199546 154.004 0.104722 168.028 0.104722 182.025C0.104722 192.024 1.12817 201.927 3.34103 211.664C12.151 250.431 33.1731 280.872 66.3936 302.683C88.9094 317.468 113.846 325.075 140.773 325.739C154.645 326.085 168.545 326.085 182.43 325.753C190.41 325.559 198.46 324.978 206.301 323.595C238.001 318.008 265.039 303.444 286.946 279.849C312.56 252.257 325.519 219.464 325.934 181.79C326.072 169.176 325.948 156.549 325.962 143.935H325.948ZM289.768 182.578C289.325 208.428 280.819 231.386 264.126 251.123C247.765 270.472 227.019 282.684 202.139 287.58C196.413 288.714 190.521 289.406 184.685 289.517C170.232 289.779 155.752 289.835 141.299 289.544C121.342 289.129 102.878 283.32 86.1849 272.422C60.9583 255.936 45.1087 232.825 38.5669 203.393C37.0318 196.478 36.3126 189.438 36.3264 182.315C36.3679 168.665 36.1051 155 36.3956 141.349C36.8105 121.571 42.4533 103.259 53.1718 86.6489C69.4363 61.4357 92.3255 45.4474 121.577 38.6704C129.156 36.9139 136.887 36.1671 144.826 36.1394V72.3342C142.958 72.4725 141.036 72.6108 139.114 72.7629C123.776 73.9662 110.194 79.5538 98.4662 89.4427C84.8157 100.936 76.5589 115.596 73.5301 133.161C73.0598 135.927 72.7418 138.763 72.7141 141.57C72.6311 155.802 72.3822 170.048 72.7556 184.265C73.1705 200.184 78.7856 214.389 88.8818 226.698C100.472 240.847 115.408 249.38 133.429 252.464C136.251 252.948 139.155 253.239 142.018 253.266C156.083 253.349 170.149 253.585 184.201 253.225C200.576 252.796 215.084 246.974 227.614 236.448C240.974 225.218 249.245 210.917 252.357 193.739C253.145 189.41 253.491 184.929 253.491 180.517C253.574 142.428 253.546 104.338 253.546 66.2487V63.7868C259.562 69.2085 264.652 74.8237 269.133 81.006C279.658 95.5281 286.227 111.682 288.73 129.427C289.422 134.309 289.726 139.288 289.782 144.226C289.92 157.019 290.017 169.812 289.782 182.606L289.768 182.578ZM144.839 108.792V217.03C141.811 217.321 138.879 216.809 136.002 216.048C119.765 211.761 108.797 197.64 108.715 180.808C108.645 168.886 108.645 156.964 108.715 145.042C108.839 126.163 122.559 110.908 141.216 108.819C142.35 108.695 143.498 108.806 144.839 108.806V108.792Z" fill="#222737" fill-opacity="0.08"/>
</svg>
